<svg id="magic.link_hover" data-name="magic.link hover" xmlns="http://www.w3.org/2000/svg" width="304.499" height="362.658" viewBox="0 0 304.499 362.658">
  <path id="Фигура_723_копия" d="M433.241,445.908c43.712-146.693,0-256.342,0-256.342s31.487-24.819,50.75-55.566c14.818,20.744,53.343,53.343,53.343,53.343s-44.823,117.8,0,258.565a223.949,223.949,0,0,0-53.343,50.75C465.469,465.541,434.722,447.019,433.241,445.908ZM570.3,209.94c22.967,24.819,62.974,39.637,65.2,41.119-22.967,61.122,0,128.542,0,128.542s-37.785,12.965-62.974,36.3C547.706,362.93,558.448,246.983,570.3,209.94ZM331,379.97s22.967-67.42,0-128.542c2.223-1.482,42.23-16.3,65.2-41.119,11.854,37.044,22.6,152.99-2.593,206.333C368.785,392.935,331,379.97,331,379.97Z" transform="translate(-331 -134)" fill="#6751ff"/>
</svg>
